PathFileType	4	(X/Y/Z)	D:\TRACE\spotREDO_2-26-24\spot_Both_Motion_1_1-v60.trc
DataRate	CameraRate	NumFrames	NumMarkers	Units	OrigDataRate	OrigDataStartFrame	OrigNumFrames
100.00	100.00	      34	9	mm	100.00	4376	      7000
Frame#	Time	front left toe			Front right toe			aft left toe			aft right toe			Arm			FL body			FR body			AL Body			AR Body			
		X1	Y1	Z1	X2	Y2	Z2	X3	Y3	Z3	X4	Y4	Z4	X5	Y5	Z5	X6	Y6	Z6	X7	Y7	Z7	X8	Y8	Z8	X9	Y9	Z9	

4376	43.750	-281.39783	127.31892	-496.40338	165.27780	18.37091	-423.20798	-318.60446	17.00340	124.02140	23.29335	19.62823	190.30994	-82.40155	681.09332	-792.16156	-113.72433	559.06964	-486.93588	39.25356	564.56775	-463.27975	-255.70784	564.48273	386.74026	-115.90756	568.80676	409.55325	
4377	43.760	-277.83447	126.52013	-495.51926	166.42059	18.81191	-423.00531	-317.85309	16.66650	124.38795	23.86936	19.61577	190.27585	-80.30985	681.78693	-792.50732	-113.84929	559.12628	-486.76764	39.44524	564.79987	-462.91025	-255.25616	564.29797	387.14972	-115.39236	568.83466	409.79053	
4378	43.770	-271.59915	125.14394	-494.43390	167.16718	19.53486	-422.69205	-317.03378	16.67603	124.60355	24.90574	19.66097	190.49944	-76.95995	683.00806	-792.60547	-114.21059	559.18506	-486.54657	39.02022	565.04333	-462.96350	-254.28574	564.26025	387.65024	-114.80875	569.05029	409.90036	
4379	43.780	-265.21539	124.53557	-494.46744	167.67303	19.85388	-423.21887	-316.13165	16.43336	124.60531	25.53799	19.57464	190.44576	-71.53261	684.23132	-792.87408	-115.40834	559.17188	-486.22092	38.00955	565.39258	-463.35901	-253.67329	563.76917	387.18170	-114.12900	569.25732	410.07144	
4380	43.790	-257.88657	123.54774	-494.21375	167.74036	20.34072	-423.46558	-315.43085	16.51908	124.73249	26.43356	19.58107	190.41635	-65.36737	686.37866	-792.53174	-116.89841	559.25732	-486.17496	37.07205	565.72150	-463.68945	-253.31728	563.61920	387.35397	-113.65735	569.34766	409.93555	
4381	43.800	-249.09241	122.58192	-494.17960	168.30832	20.99228	-423.62662	-314.31042	16.30532	125.01791	27.27727	19.60327	190.31219	-58.17796	688.46161	-792.06482	-117.94945	559.58392	-486.40512	35.93451	566.28424	-463.86908	-252.99390	563.66144	387.58990	-113.14577	569.45935	409.95663	
4382	43.810	-240.63170	121.04777	-493.97028	168.41322	21.78572	-423.74374	-313.41632	16.15718	125.24757	27.80337	19.46739	190.11693	-50.18258	690.71753	-790.56281	-119.05238	560.13849	-486.45880	35.19178	566.88458	-464.09787	-252.99672	563.68640	387.54062	-113.12272	569.57874	409.79056	
4383	43.820	-231.54732	117.86271	-493.92416	168.85246	21.93786	-423.88751	-312.92245	15.96103	125.29528	28.62491	19.47195	190.34076	-43.27772	692.69849	-789.36688	-119.36791	560.79932	-486.60880	34.83585	567.50922	-464.33286	-253.39684	563.65894	387.33597	-113.55129	569.68170	409.67926	
4384	43.830	-222.34825	112.70470	-494.43307	169.95151	22.41597	-423.60104	-312.13000	15.57679	125.20119	29.31252	19.38996	190.67033	-37.59183	694.42017	-788.68976	-118.80350	561.29889	-486.68362	35.07276	567.87408	-464.26895	-254.33379	563.85175	387.01736	-114.43524	569.71014	409.49231	
4385	43.840	-214.35100	105.46599	-494.81934	171.53787	22.85660	-422.68921	-311.64722	15.28079	125.07663	29.95658	19.33145	190.84866	-33.44103	695.75378	-787.51593	-117.71188	561.94257	-487.08884	36.08300	568.46637	-463.99548	-256.18192	564.46613	386.94363	-116.46301	569.89740	409.14896	
4386	43.850	-208.55373	95.94165	-495.27377	173.44710	22.13621	-422.21313	-311.31943	14.87443	124.68268	30.20658	19.63123	191.12885	-31.08521	696.27679	-786.40320	-115.97798	562.29877	-487.61078	37.81917	568.99634	-463.74796	-258.65936	564.58167	385.72647	-118.97554	570.00067	408.73724	
4387	43.860	-207.14420	85.69209	-495.88092	174.51503	21.46868	-421.32669	-311.11823	14.43765	124.61694	30.24067	20.48620	190.84927	-30.55458	696.65106	-785.83319	-113.17710	562.87775	-488.02579	40.35873	569.60950	-463.29639	-261.30176	564.67511	384.62491	-121.85892	570.29565	408.29294	
4388	43.870	-211.54413	75.03746	-496.48840	176.35443	21.43915	-420.40921	-311.17484	13.73631	124.63738	30.51732	20.82616	191.21425	-31.66347	696.59680	-785.44672	-110.42148	563.64429	-488.63705	42.76836	570.09741	-462.70850	-264.00009	563.93427	382.97125	-124.50624	569.73151	407.59515	
4389	43.880	-219.78661	65.85781	-497.44855	177.51897	21.81989	-419.52313	-310.99533	13.03326	124.31371	30.82899	20.20079	191.68195	-34.33051	696.65625	-785.11548	-107.97840	564.51324	-489.09454	45.18240	570.76440	-462.43793	-265.80740	562.42114	381.25104	-126.93038	568.80389	406.96973	
4390	43.890	-231.36369	57.69666	-498.15518	177.93715	21.98948	-419.42929	-309.84671	13.06287	123.51130	31.23490	19.91106	192.26921	-37.70102	696.17371	-784.85913	-106.16144	565.37671	-489.89203	47.24175	571.18494	-462.18381	-267.79733	561.91766	379.94312	-128.66357	568.15906	406.46024	
4391	43.900	-243.70142	48.98511	-499.39648	179.34993	22.17688	-419.46518	-308.97626	13.89833	123.46668	31.87011	19.59084	192.41147	-41.77140	695.95648	-785.14447	-104.71922	565.83411	-489.90479	48.56073	571.84528	-462.49857	-268.56873	561.75122	379.24783	-129.77512	567.93951	405.89789	
4392	43.910	-255.21567	40.45940	-501.05783	179.77966	22.27056	-419.66907	-308.43192	13.82454	123.61581	32.35329	19.44022	192.32594	-45.70081	695.89404	-785.54785	-104.45173	566.56915	-490.35706	48.74761	572.38879	-462.77771	-268.67496	561.87537	378.68063	-129.68704	567.79797	405.37732	
4393	43.920	-264.12625	32.15571	-503.01611	180.12550	22.90894	-419.87991	-307.50171	13.91216	124.39024	33.33552	19.30859	192.20688	-48.70942	695.93671	-785.89594	-105.34055	567.31873	-490.94656	47.93600	573.04767	-463.67026	-268.15140	561.74805	378.40222	-129.04337	567.63312	404.95197	
4394	43.930	-267.00696	27.48232	-505.87155	180.00775	23.51339	-420.33505	-306.55811	14.51420	124.86925	34.29755	18.59058	192.08774	-51.55812	696.35742	-786.99304	-107.06490	568.27118	-491.52597	46.14499	574.06384	-464.75018	-266.78317	561.57172	378.39444	-127.75613	567.36029	404.60352	
4395	43.940	-267.58047	26.83591	-505.30774	180.19781	25.29359	-420.23364	-305.10199	14.86730	125.02024	35.99875	17.86202	192.37701	-53.12139	696.91003	-788.26099	-109.47640	570.03546	-491.91660	43.91673	576.07275	-465.90573	-265.64108	561.27411	378.65967	-126.34489	567.18188	404.00421	
4396	43.950	-268.55026	28.86484	-503.21902	179.29341	26.61357	-421.74414	-304.36539	13.63065	126.58938	37.55060	17.57134	192.09222	-52.63439	697.39325	-788.34839	-112.95838	572.85065	-492.51819	40.67131	578.68536	-467.24872	-263.70770	560.52142	379.16400	-124.23708	566.45685	403.70361	
4397	43.960	-268.54453	28.31096	-503.05170	178.73573	28.31970	-422.15448	-304.51886	13.01264	126.39233	42.66880	20.43864	189.81981	-51.18406	698.52509	-789.18207	-116.70706	574.54236	-493.02557	36.87666	580.17841	-468.89053	-261.48581	561.33832	379.55942	-121.54919	566.79303	403.10669	
4398	43.970	-270.03726	27.48871	-502.30771	179.53586	29.61817	-422.05536	-303.99924	13.54375	126.73983	39.72406	20.10883	186.92426	-49.34322	699.55042	-789.75934	-120.29039	576.24774	-493.55161	33.54916	581.09216	-470.49039	-259.53845	562.21686	379.45038	-118.85720	566.96295	402.81653	
4399	43.980	-270.19849	27.08253	-502.27661	179.79626	30.07574	-422.41327	-302.53479	14.24645	126.82822	42.07483	19.75169	186.70871	-47.05043	700.02948	-789.99158	-123.79396	578.02631	-494.22214	30.46046	582.42084	-471.76929	-256.73773	561.77692	379.55676	-117.33205	566.67175	402.30957	
4400	43.990	-269.41373	27.10293	-502.15277	180.09148	30.19336	-422.38773	-302.03171	14.35734	127.07202	43.15641	19.35874	186.81987	-43.51743	699.81354	-790.92828	-126.46218	579.47443	-494.83145	27.67698	583.42725	-473.08441	-254.95139	562.16821	379.59351	-116.15614	566.83417	401.52161	
4401	44.000	-269.14371	27.09984	-501.95877	180.36406	30.21504	-423.27463	-301.67267	14.07085	127.44335	43.37412	19.31474	186.51453	-39.40380	699.89386	-791.55621	-128.46306	580.73846	-495.40604	25.79580	584.09906	-474.09897	-254.55119	563.20605	379.62616	-114.87112	567.06293	400.95938	
4402	44.010	-268.83984	27.26615	-501.87506	180.66161	30.61034	-423.33652	-301.43555	13.75561	127.43233	43.51385	19.25280	186.54324	-35.08641	700.00311	-790.90210	-129.85738	581.88562	-495.93338	24.52777	585.03510	-475.05023	-254.44836	563.52911	379.24561	-114.76048	567.18073	400.42532	
4403	44.020	-268.44617	27.76982	-501.79309	181.47758	31.14128	-423.18271	-301.27524	13.50523	127.32204	44.08171	19.41686	186.87141	-31.24859	699.91724	-790.68268	-129.81950	582.69574	-496.59726	24.45936	585.56824	-475.58765	-255.18890	563.67511	378.30133	-115.72980	567.41943	399.63321	
4404	44.030	-267.88495	28.53877	-501.78143	182.00533	31.17393	-422.92422	-300.91910	12.67612	127.25308	44.58874	19.88524	187.65819	-27.89166	699.17059	-790.37634	-129.27649	583.36871	-497.24725	25.16606	586.28668	-475.94687	-256.37418	563.86041	377.37936	-116.63123	567.17023	399.12582	
4405	44.040	-266.48328	29.14310	-502.29022	182.08617	31.30308	-422.94125	-301.18884	12.21086	126.91674	44.82871	19.62823	188.61526	-25.43929	698.53864	-789.62585	-127.61861	584.08124	-497.96143	26.33517	586.63123	-476.16025	-257.82425	564.13849	376.55801	-118.58977	567.04004	398.27789	
4406	44.050	-266.07532	30.57934	-502.46689	182.95209	31.02322	-422.48981	-300.76016	11.80444	126.91267	44.66124	19.61179	188.70216	-24.38635	697.92365	-789.08740	-125.42179	584.36957	-498.78345	28.66108	586.86609	-476.12149	-259.99460	564.85413	375.19077	-120.67283	567.63721	397.45801	
4407	44.060	-265.37238	31.18228	-502.66473	183.52477	31.42853	-421.22198	-300.91614	11.86014	126.56297	44.71843	19.70716	189.17374	-24.24977	697.38318	-788.62531	-123.07092	584.64722	-499.43536	30.64315	586.74524	-476.11053	-261.73660	565.23914	373.94016	-122.62089	567.90662	396.91541	
4408	44.070	-264.08347	31.86646	-502.61160	184.21875	31.42916	-420.58844	-301.48273	11.75226	126.15637	44.78986	19.77669	189.24734	-24.78855	697.07214	-788.19641	-120.34721	584.38617	-499.93454	33.60321	586.58533	-475.90063	-263.41345	565.08673	372.16974	-124.61092	568.13440	396.02008	
4409	44.080	-263.17657	32.18354	-502.93378	184.40436	31.28396	-420.43063	-301.24332	11.44826	125.94927	44.87865	19.87615	189.55054	-25.97853	696.55011	-787.76184	-117.52743	584.53705	-500.86139	36.15504	586.52734	-476.00439	-264.58292	565.20929	370.76773	-125.95493	568.18457	395.28616	
